<svg enable-background="new 0 0 100 100" height="100" viewBox="0 0 100 100" width="100" xmlns="http://www.w3.org/2000/svg"><path d="m40.531 19.959c-.097 0-.19.016-.283.029v-.029h-10.336-.001c-1.194 0-2.163.968-2.163 2.163v.005h-.001v55.743h.001c0 .003-.001.006-.001.009 0 1.194.969 2.162 2.163 2.162h10.62c1.194 0 2.162-.968 2.162-2.162 0-.003-.001-.006-.001-.009h.001v-55.743c0-.002.001-.004.001-.005 0-1.195-.969-2.163-2.162-2.163z"/><path d="m72.251 77.87v-55.743c0-.002.001-.004.001-.005 0-1.195-.969-2.163-2.162-2.163-.097 0-.19.016-.283.029v-.029h-10.337c-1.194 0-2.163.968-2.163 2.163v.005h-.001v55.743h.001c0 .003-.001.006-.001.009 0 1.194.969 2.162 2.163 2.162h10.618c1.194 0 2.162-.968 2.162-2.162.002-.003.001-.006.002-.009z"/></svg>